<svg xmlns="http://www.w3.org/2000/svg" version="1.1" xmlns:xlink="http://www.w3.org/1999/xlink" xmlns:svgjs="http://svgjs.com/svgjs" width="1440" height="560" preserveAspectRatio="none" viewBox="0 0 1440 560"><g mask="url(&quot;#SvgjsMask1000&quot;)" fill="none"><rect width="1440" height="560" x="0" y="0" fill="rgba(13, 103, 178, 1)"></rect><path d="M0,686.965C129.122,679.165,163.058,492.722,268.45,417.717C366.2,348.151,511.572,361.025,587.974,268.519C671.199,167.751,727.897,26.683,696.109,-100.085C664.574,-225.844,514.219,-274.041,427.707,-370.61C343.152,-464.993,313.308,-617.983,193.969,-660.596C74.315,-703.322,-51.419,-625.665,-171.664,-584.632C-286.745,-545.361,-406.822,-513.081,-492.159,-426.458C-580.503,-336.783,-641.053,-219.277,-654.86,-94.155C-668.445,28.95,-636.665,156.357,-567.836,259.322C-503.987,354.837,-381.91,382.342,-290.135,451.459C-188.577,527.943,-126.906,694.631,0,686.965" fill="#0c5da0"></path><path d="M1440 971.135C1514.099 955.627 1553.149 874.988 1621.4569999999999 842.352 1704.661 802.5989999999999 1832.779 840.1510000000001 1879.972 760.929 1925.644 684.26 1839.903 592.528 1822.408 505.01800000000003 1806.142 423.655 1835.376 327.193 1780.768 264.723 1726.172 202.267 1630.371 203.026 1548.238 191.37599999999998 1476.235 181.163 1406.638 190.647 1334.721 201.45299999999997 1251.212 214.00099999999998 1157.2730000000001 204.416 1093.4479999999999 259.711 1027.605 316.754 996.018 408.877 994.758 495.984 993.56 578.783 1051.074 646.595 1086.769 721.315 1121.754 794.549 1135.883 883.244 1202.146 930.108 1269.192 977.5260000000001 1359.622 987.957 1440 971.135" fill="#0e71c4"></path></g><defs><mask id="SvgjsMask1000"><rect width="1440" height="560" fill="#ffffff"></rect></mask></defs></svg>